<svg width="326" height="119" viewBox="0 0 326 119" fill="none" xmlns="http://www.w3.org/2000/svg">
<g clip-path="url(#clip0_849_386)">
<path fill-rule="evenodd" clip-rule="evenodd" d="M166.545 109.691C51.1105 99.3969 13.8598 18.3725 11.044 -13.5887L20.9557 -14.4113C23.3908 13.2282 57.25 89.9596 167.378 99.7806L166.545 109.691ZM360.85 24.3298C344.482 49.7431 289.879 110.96 189.025 110.732L188.997 100.782C285.358 101 337.236 42.5746 352.477 18.9117L360.85 24.3298Z" fill="#A7D6C3"/>
</g>
<g clip-path="url(#clip1_849_386)">
<path fill-rule="evenodd" clip-rule="evenodd" d="M166.545 109.691C51.1105 99.397 13.8598 18.3726 11.044 -13.5886L20.9557 -14.4111C23.3908 13.2284 57.25 89.9597 167.378 99.7808L166.545 109.691ZM360.85 24.3299C344.482 49.7433 289.879 110.96 189.025 110.732L188.997 100.782C285.358 101 337.236 42.5748 352.477 18.9119L360.85 24.3299Z" fill="#37A477"/>
</g>
<defs>
<clipPath id="clip0_849_386">
<rect width="180" height="119" fill="white"/>
</clipPath>
<clipPath id="clip1_849_386">
<rect width="146" height="119" fill="white" transform="translate(180)"/>
</clipPath>
</defs>
</svg>
