<svg xmlns="http://www.w3.org/2000/svg" xmlns:xlink="http://www.w3.org/1999/xlink" viewBox="0 0 569.06 495.7"><defs><style>.cls-1{fill:none;}.cls-2{clip-path:url(#clip-path);}.cls-3{fill:#319c38;}</style><clipPath id="clip-path" transform="translate(0 -36.68)"><rect class="cls-1" width="569.06" height="569.06"/></clipPath></defs><title>fm-values-client</title><g id="Layer_2" data-name="Layer 2"><g id="Layer_1-2" data-name="Layer 1"><g class="cls-2"><path class="cls-3" d="M284.53,230.07a96.7,96.7,0,1,0-96.7-96.7A96.81,96.81,0,0,0,284.53,230.07Zm0-160a63.36,63.36,0,1,1-63.35,63.35A63.42,63.42,0,0,1,284.53,70Z" transform="translate(0 -36.68)"/><path class="cls-3" d="M480.14,230.07A61.13,61.13,0,1,0,419,168.94,61.2,61.2,0,0,0,480.14,230.07Zm0-88.92a27.79,27.79,0,1,1-27.78,27.79A27.82,27.82,0,0,1,480.14,141.15Z" transform="translate(0 -36.68)"/><path class="cls-3" d="M493.59,267.86H467.81a75.57,75.57,0,0,0-68.57,43.74,134.17,134.17,0,0,0-99.17-43.74H269a134.17,134.17,0,0,0-99.17,43.74,75.57,75.57,0,0,0-68.57-43.74H75.47c-41.62,0-75.47,33.65-75.47,75V464.25a32.66,32.66,0,0,0,32.69,32.57H134.64a39,39,0,0,0,38.77,35.56H395.65a39,39,0,0,0,38.77-35.56H535.21a33.82,33.82,0,0,0,33.85-33.72V342.87C569.06,301.51,535.21,267.86,493.59,267.86Zm-460.25,75c0-23,18.9-41.67,42.13-41.67h25.78c23.23,0,42.13,18.69,42.13,41.67v11.42c-11.21,29.19-8.9,46.68-8.9,109.18H33.34ZM401.23,493.46a5.58,5.58,0,0,1-5.58,5.58H173.41a5.58,5.58,0,0,1-5.58-5.58V402.37A101.28,101.28,0,0,1,269,301.2h31.08A101.28,101.28,0,0,1,401.23,402.37ZM535.72,463.1c0,.57,6.21.37-101.14.37,0-63,2.3-80-8.9-109.18V342.87c0-23,18.9-41.67,42.13-41.67h25.78c23.23,0,42.13,18.69,42.13,41.67Z" transform="translate(0 -36.68)"/><path class="cls-3" d="M88.92,230.07a61.13,61.13,0,1,0-61.13-61.13A61.2,61.2,0,0,0,88.92,230.07Zm0-88.92a27.79,27.79,0,1,1-27.79,27.79A27.82,27.82,0,0,1,88.92,141.15Z" transform="translate(0 -36.68)"/></g></g></g></svg>