<svg xmlns="http://www.w3.org/2000/svg" viewBox="0 0 979.34 674.08"><defs><style>.cls-1{fill:#37a477;}</style></defs><title>fm-values-mindset</title><g id="Layer_2" data-name="Layer 2"><g id="Layer_1-2" data-name="Layer 1"><path class="cls-1" d="M243.46,74.79c-72.2,0-131.1,58.89-131.1,131.09S171.26,337,243.46,337s131.09-58.89,131.09-131.09S315.66,74.79,243.46,74.79Zm0,37.47a93.69,93.69,0,1,1-93.62,93.62A93.3,93.3,0,0,1,243.46,112.26Z"/><path class="cls-1" d="M243.46,374.45C108.9,374.45,0,483.33,0,617.83v37.46a18.77,18.77,0,0,0,1.4,7.17,18.74,18.74,0,0,0,10.1,10.17,18.73,18.73,0,0,0,7.16,1.45H468.25a18.72,18.72,0,0,0,13.23-5.53,18.76,18.76,0,0,0,5.43-13.26V617.83C486.91,483.33,378,374.45,243.46,374.45Zm0,37.45c114.45,0,206,91.52,206,205.93v18.8h-412v-18.8C37.47,503.42,129,411.9,243.46,411.9Z"/><path class="cls-1" d="M773.34,0a18.76,18.76,0,0,0-7.29,1.32,18.77,18.77,0,0,0-10.38,10.15,18.74,18.74,0,0,0,17.67,26h142.1L722.21,230.73,629.56,138A18.7,18.7,0,0,0,603,138L417.63,323.35c-17.7,17.69,8.86,44.25,26.55,26.55l172.1-172.28,92.79,92.76a18.7,18.7,0,0,0,26.38,0L941.85,64v142.1a18.75,18.75,0,0,0,37.49,0V18.81a18.56,18.56,0,0,0-1.4-7.18A18.76,18.76,0,0,0,960.65,0Z"/></g></g></svg>