<svg xmlns="http://www.w3.org/2000/svg" viewBox="0 0 126.7 145.5"><defs><style>.cls-1{fill:#37a477;}</style></defs><title>hero-insurance-icon</title><g id="Layer_2" data-name="Layer 2"><g id="Layer_1-2" data-name="Layer 1"><path class="cls-1" d="M9.49,14a7.24,7.24,0,0,0-5.87,7.11V58.56c0,55,57.81,82.74,58.4,83a3.12,3.12,0,0,0,2.67,0c.58-.27,58.39-28,58.39-83V21.08A7.24,7.24,0,0,0,117.21,14L64.74,3.76a7.17,7.17,0,0,0-2.77,0Zm107.3,44.59c0,42-36.89,67.15-50.12,74.81a6.62,6.62,0,0,1-6.64,0C46.79,125.73,9.91,100.66,9.91,58.56V26.26a7.24,7.24,0,0,1,5.87-7.11l46.19-9a7.17,7.17,0,0,1,2.77,0l46.18,9a7.24,7.24,0,0,1,5.87,7.11ZM56.34,77.62a3,3,0,0,0,4.54,0l29.48-35.8a3.15,3.15,0,0,1,4.86,4l-33.79,41a3.62,3.62,0,0,1-5.58,0L34.66,61.42a3.15,3.15,0,1,1,4.83-4Z"/><path class="cls-1" d="M63.35,145.5a6.8,6.8,0,0,1-2.88-.65C59.87,144.56,0,115.6,0,58.56V21.08A10.89,10.89,0,0,1,8.8,10.41h0L61.28.2a10.68,10.68,0,0,1,4.14,0L117.9,10.41a10.89,10.89,0,0,1,8.8,10.67V58.56c0,57-59.86,86-60.46,86.29A6.84,6.84,0,0,1,63.35,145.5Zm-.63-7.64c.51.27.81.41.85.43s.3-.17.84-.46A11.92,11.92,0,0,1,62.72,137.86Zm.63-124.2a4,4,0,0,0-.69.06l-46.19,9a3.62,3.62,0,0,0-2.93,3.55v32.3c0,40.63,37,65.13,48.3,71.67a3,3,0,0,0,3,0c11.33-6.56,48.32-31.1,48.32-71.67V26.26a3.62,3.62,0,0,0-2.93-3.55l-46.2-9A4,4,0,0,0,63.35,13.66ZM10.19,17.52a3.65,3.65,0,0,0-2.94,3.56v.71a10.94,10.94,0,0,1,3.63-4.4Zm105.63-.13a10.86,10.86,0,0,1,3.63,4.4v-.71a3.64,3.64,0,0,0-2.93-3.56ZM58.63,91.78a7.25,7.25,0,0,1-5.57-2.61L31.87,63.74a6.77,6.77,0,1,1,10.41-8.66L58.76,74.86l28.8-35.35A6.77,6.77,0,0,1,98,48.11l-33.79,41a7.22,7.22,0,0,1-5.57,2.64ZM56.5,82l2.14,2.57L60.76,82a6.57,6.57,0,0,1-2.13.36A14.26,14.26,0,0,1,56.5,82Zm2.63-6.66h0Z"/></g></g></svg>